<svg xmlns="http://www.w3.org/2000/svg" viewBox="0 0 278 300"><g fill="none" stroke-width="2"><path stroke="#0f0f0d" d="M132.96 34q-2.28.86-4.41-.09-15.94-7.08-31.77-14.43a1.88 1.81 24.8 0 0-2.46.85l-4.62 9.86a.66.45-67.4 0 0 .17.82q.28.1.59-.01" vector-effect="non-scaling-stroke"/><path stroke="#8d8d8b" d="m90.46 31 .54.46" vector-effect="non-scaling-stroke"/><path stroke="#0f0f0d" d="M91 31.46q-1.16.54-.24 1.01 7.24 3.68 14.69 6.91c8.59 3.74 16.43 7.6 24.76 11.15a2.02 2.01 3.8 0 1 1.15 1.31q.7 2.39 1.6-.09" vector-effect="non-scaling-stroke"/><path stroke="#8d8d8b" d="m132.96 51.75.02 7.03a.53.52 11.2 0 1-.73.47l-24.18-9.84a.6.56 23.9 0 0-.75.26q-2.62 5.18-4.17 10.76" vector-effect="non-scaling-stroke"/><path stroke="#0f0f0d" d="M103.15 60.43q-.28.43-.19.71a1.56 1.15 86.9 0 0 .76.93l20.77 8.46q.87.36.07.82L79.24 97.73q-1.69.99-1.43-.97l3.02-22a.72.61-77.1 0 0-.39-.75q-.37-.14-.69.03" vector-effect="non-scaling-stroke"/><path stroke="#8d8d8b" d="M79.75 74.04q-5.96-1.68-12.01-1.25" vector-effect="non-scaling-stroke"/><path stroke="#0f0f0d" d="m67.74 72.79-1.14.35a1.11.49-86.2 0 0-.46.88l-3.33 22.29a.52.37-75 0 1-.57.47l-4.44-2.56a.99.35-81.2 0 1-.17-.89q1.31-13.04 2.72-26.08c.35-3.31.46-8.05 1.12-12.05.34-2.06.3-3.81.28-5.79q-.01-1.96-1.97-2.17c-.77-.09-12.28-2.33-10.53.22" vector-effect="non-scaling-stroke"/><path stroke="#8d8d8b" d="m49.25 47.46-.54.29" vector-effect="non-scaling-stroke"/><path stroke="#0f0f0d" d="M48.71 47.75q-.48-.04-.87.18a1.12.77 83 0 0-.42.8q-.23 2.61-.65 5.19c-.67 4.22-.55 8.48-1.4 12.77-.48 2.44-.24 4.9-.65 7.41-.74 4.58-.78 7.33-.56 11.4q.06 1.07-.89.53-12.34-7.01-24.52-14.27-.92-.55-1.46.49" vector-effect="non-scaling-stroke"/><path stroke="#8d8d8b" d="m17.29 72.25-.75 1" vector-effect="non-scaling-stroke"/><path stroke="#0f0f0d" d="M16.54 73.25c-1.49-1.03-5.56 7.48-6.16 8.5a1.68 1.64 30.4 0 0 .62 2.27l24.29 14.17a.84.81-47.2 0 1 .03 1.38l-29.51 21q-2.3 1.64-.66 4.01l4.5 6.5a.83.69 64.5 0 0 .79.36l1.06-.23" vector-effect="non-scaling-stroke"/><path stroke="#8d8d8b" d="m11.5 131.21.79.79" vector-effect="non-scaling-stroke"/><path stroke="#0f0f0d" d="M12.29 132q1.28.91 2.77-.19 10.8-8 30.15-21.59 2.89-2.03 5.06-2.71a1.3.98-33.7 0 1 .91.05l3.25 1.77a.89.89 40.4 0 1 .12 1.48L37 124.49q-.85.66-1.23 1.44-.64 1.33.48 1.03" vector-effect="non-scaling-stroke"/><path stroke="#8d8d8b" d="m36.25 126.96 6.76 8.59a.78.71 61.1 0 0 .79.27q.77-.25 1.41-.82" vector-effect="non-scaling-stroke"/><path stroke="#0f0f0d" d="M45.21 135q.55 1.19 1.48.43 8.22-6.7 15.93-12.34 1.37-1 1.37.66l-.02 53.69q0 .78-.68.29c-3.56-2.56-6.63-5.61-10.19-8.13-1.28-.91-7.96-7.41-8.89-5.35" vector-effect="non-scaling-stroke"/><path stroke="#8d8d8b" d="M44.21 164.25q-.62-.78-1.17 0" vector-effect="non-scaling-stroke"/><path stroke="#0f0f0d" d="M43.04 164.25c-1.16-2.04-6.72 6.69-7.5 7.78a1.82 1.7-53.3 0 0 .27 2.41l18.39 14.35a1.04.8 41.6 0 1 .26 1.39q-2.05 1.89-4.68 2.66a1.18.34 40.4 0 1-.88-.4q-17.7-13.07-36.16-25.02" vector-effect="non-scaling-stroke"/><path stroke="#8d8d8b" d="m12.74 167.42-.99.62" vector-effect="non-scaling-stroke"/><path stroke="#0f0f0d" d="m11.75 168.04-1.08.07a1.12 1.07-73.3 0 0-.83.47l-5.21 7.55q-1.06 1.54.71 2.81l29.68 21.27a1.1 1.07-41.9 0 1-.13 1.82q-11.09 6.43-21.87 12.53c-5.35 3.03-.58 6.9 1.1 10.41a1.19.78 75.8 0 0 .67.62q.48.09.96-.13" vector-effect="non-scaling-stroke"/><path stroke="#8d8d8b" d="M15.75 225.46q.55 1.56 2.38 2.21" vector-effect="non-scaling-stroke"/><path stroke="#0f0f0d" d="M18.13 227.67q12.71-5.93 24.01-13.03a.99.99-17.4 0 1 1.52.79q.43 8.7 1.6 17.32.12.93.81 2.3a1.77 1.71 35.7 0 1 .17.94q-.58 5.05.4 10.03c.32 1.65-.56 6.23 2.11 6.19" vector-effect="non-scaling-stroke"/><path stroke="#8d8d8b" d="m48.75 252.21.29.29" vector-effect="non-scaling-stroke"/><path stroke="#0f0f0d" d="M49.04 252.5c-.02 2.29 3.06 1.25 4.78.8 2.71-.7 6.39.95 7.59-2.63q.44-1.31.11-4.33-1.99-18.69-3.7-37.44c-.31-3.35.86-5.08 4.24-5.34a.59.59-6.3 0 1 .63.5l3.64 22.93a.84.57 88 0 0 .48.66q.41.1.9-.15" vector-effect="non-scaling-stroke"/><path stroke="#8d8d8b" d="M67.71 227.5q6.05 0 11.92-1.87" vector-effect="non-scaling-stroke"/><path stroke="#0f0f0d" d="M79.63 225.63c.8-.59 1.12-.87.95-1.93q-1.71-10.41-2.67-20.6-.16-1.67 1.3-.82l44.41 25.81q1.84 1.07-.15 1.9-9.39 3.92-18.66 7.54-.93.36-1.45 2.04" vector-effect="non-scaling-stroke"/><path stroke="#8d8d8b" d="M103.36 239.57q1.5 5.81 4.18 11.18" vector-effect="non-scaling-stroke"/><path stroke="#0f0f0d" d="M107.54 250.75q-.13 1.57 1.22 1.03 10.15-4.11 20.3-8.23c.57-.23 2.68-.88 2 .44a1.59.4 80.3 0 0-.08 1.01l.28 3.25a1.1.77-21.3 0 1-.57.86q-2.62 1.48-5.38 2.71-16.9 7.51-33.69 15.24c-.47.21-1.62 1.25-.37 1.48" vector-effect="non-scaling-stroke"/><path stroke="#8d8d8b" d="m91.25 268.54-.86.75" vector-effect="non-scaling-stroke"/><path stroke="#0f0f0d" d="M90.39 269.29q.85 5.38 4.28 10.72a1.79 1.76-28.5 0 0 2.22.64l36.26-16.21" vector-effect="non-scaling-stroke"/><path stroke="#8d8d8b" d="m133.15 264.44-.07 29.52a.65.45-88.2 0 0 .41.63q5.51.44 11-.14a.78.58 87.6 0 0 .52-.76L145 263.5a.43.33-80.9 0 1 .47-.44l36.29 16.42a.68.48 24.4 0 0 .82-.16l4.56-9.9a.6.53 27.2 0 0-.28-.71l-1.61-.92" vector-effect="non-scaling-stroke"/><path stroke="#0f0f0d" d="M185.25 267.79q1.54-.31.01-1-19.07-8.67-38.04-17.54a.95.65-84.8 0 1-.42-.75l-.29-3.74q-.17-2.26 1.91-1.41l20.52 8.45q2.08.86 3.02-1.15c.49-1.03 4.99-9.7 3.04-10.19" vector-effect="non-scaling-stroke"/><path stroke="#8d8d8b" d="m175 240.46.04-.71" vector-effect="non-scaling-stroke"/><path stroke="#0f0f0d" d="M175.04 239.75c.86-2.09-1-1.63-1.98-2.02q-9.91-3.94-18.84-7.8-1.77-.77-.04-1.77l44.61-25.88q1.4-.81 1.19.71l-3.01 21.5a1.3.67-72.3 0 0 .15.89q.45.57 1.38.58" vector-effect="non-scaling-stroke"/><path stroke="#8d8d8b" d="m198.5 225.96 2 .5" vector-effect="non-scaling-stroke"/><path stroke="#0f0f0d" d="M200.5 226.46q-1.1.11-.72.91a1.06.87-4.7 0 0 .75.52l7.89 1.28q.02 0 .78-.25 1.2-.4 2.07-1.39a2.17 1.03 86.2 0 0 .41-1.04l3.47-22.56a.84.71-72 0 1 1.09-.68l3.44 2.05a1.25.47-89.7 0 1 .36.96c.36 4.54-.86 9.98-1.12 13.07-.44 5.21-.4 11.37-1.65 16.36-.6 2.37-.26 5.2-.71 7.53-.21 1.09-1.53 8.28.65 7.78" vector-effect="non-scaling-stroke"/><path stroke="#8d8d8b" d="M217.21 251q5.94 1.19 12 1.25" vector-effect="non-scaling-stroke"/><path stroke="#0f0f0d" d="M229.21 252.25c.8.67 1.26.12 1.35-.69q1.79-16.24 3.39-32.49a1.02.76-72.9 0 0-.3-.85q-.4-.28-.86-.22" vector-effect="non-scaling-stroke"/><path stroke="#8d8d8b" d="m232.79 218 .46-3.79" vector-effect="non-scaling-stroke"/><path stroke="#0f0f0d" d="M233.25 214.21q.75.42 1.51.23a1.39.92-27.8 0 1 .9.09q11.22 6.42 22.35 12.94.98.58 1.53-.47" vector-effect="non-scaling-stroke"/><path stroke="#8d8d8b" d="M259.54 227q.75.54 1.93.44" vector-effect="non-scaling-stroke"/><path stroke="#0f0f0d" d="M261.47 227.44q3.69-3.69 5.75-8.47c.89-2.06.17-3.98-2.18-4.21q-.51-.05-.94-.3l-20.9-12.18a1.36 1.32 42 0 1-.15-2.25l30.2-21.51a1.81 1.38 56.9 0 0 .16-2.19q-3-4.91-7.19-8.79" vector-effect="non-scaling-stroke"/><path stroke="#8d8d8b" d="m266.22 167.54-1.21.63" vector-effect="non-scaling-stroke"/><path stroke="#0f0f0d" d="M265.01 168.17q-2.37-.08-4.16 1.4-1.32 1.08-1.41 1.15-15.24 10.87-30.52 21.72a1.76 1.52-46.5 0 1-1.75.17l-4.07-2.24a.64.59-48.7 0 1-.02-1.03l18.96-14.8a1.82 1.75-34.2 0 0 .49-2.3q-2.68-4.59-6.91-7.72" vector-effect="non-scaling-stroke"/><path stroke="#8d8d8b" d="m235.62 164.52-1.33-.77" vector-effect="non-scaling-stroke"/><path stroke="#0f0f0d" d="M234.29 163.75q-.71-1.01-1.74-.18-8.93 7.2-17.34 13.52-1.33 1-1.33-.59l-.06-52.5q0-2.21 1.74-.75 8.11 6.79 18.44 13.22" vector-effect="non-scaling-stroke"/><path stroke="#8d8d8b" d="m234 136.47 1.71-1.72" vector-effect="non-scaling-stroke"/><path stroke="#0f0f0d" d="M235.71 134.75c.82 2.2 6.23-6.42 6.55-6.93a1.83 1.81 35.1 0 0-.43-2.41l-17.68-13.78a1.69 1.48 42.7 0 1-.26-2.44q1.96-1.72 4.38-1.87a1.36.26 37.8 0 1 .93.47l34.6 24.64a1.01.71 43.8 0 0 .91.14l1.04-.53" vector-effect="non-scaling-stroke"/><path stroke="#8d8d8b" d="m265.75 132.04 6.46-8.89a.82.71-44.2 0 0 .07-.85q-.3-.48-.82-.8" vector-effect="non-scaling-stroke"/><path stroke="#0f0f0d" d="M271.46 121.5q.11-1.14-1.43-2.26-13.82-10.1-27.85-19.9a.67.67 47.6 0 1 .05-1.12l24.01-13.95q2.22-1.29 1.12-3.07l-5.13-8.4a.56.55-23.8 0 0-.63-.24q-.21.06-.35.23" vector-effect="non-scaling-stroke"/><path stroke="#8d8d8b" d="m261.25 72.79-.75-.33" vector-effect="non-scaling-stroke"/><path stroke="#0f0f0d" d="M260.5 72.46q.4-1.7-.95-.91-12.02 7-24.04 13.9a.96.96-17.3 0 1-1.43-.75q-1.57-17.2-3.5-34.34c-.05-.41-.73-2.16-1.12-.36" vector-effect="non-scaling-stroke"/><path stroke="#8d8d8b" d="M229.46 50q.37-2.54-1.65-2.44-5.4.28-10.62 1.58" vector-effect="non-scaling-stroke"/><path stroke="#0f0f0d" d="M217.19 49.14c-2.68.49.17 15.64.39 16.9.48 2.66.2 5.29.63 7.98q.52 3.35.71 5.91c.22 2.95 1.08 5.54 1.05 8.45q-.02 2.41.15 4.84a1.13.35 83.3 0 1-.18.98l-4.17 2.59a.64.5 72.6 0 1-.79-.54l-3.55-23.99a.96.75-88.9 0 0-.56-.75c-3.77-1.15-8.09.59-11.64.89a.87.64 2.9 0 0-.72.48q-.13.43.03.87" vector-effect="non-scaling-stroke"/><path stroke="#8d8d8b" d="m198.54 73.75.52 6.4" vector-effect="non-scaling-stroke"/><path stroke="#0f0f0d" d="M199.06 80.15q-1.64 1.86-1.03 4.25c1.05 4.09 1.51 8.41 2.14 12.59q.27 1.84-1.46.83L153.94 71.8q-1.67-.96.21-1.72l20.57-8.32q1.88-.76 1-2.95l-4.03-9.99a1.72 1.58-22 0 0-2.19-.82l-21.19 8.55a1.49.73-12.3 0 0-.81.64q-.33.81.75.85" vector-effect="non-scaling-stroke"/><path stroke="#8d8d8b" d="m148.25 58.04-2.98 1.21a.32.3 79.7 0 1-.41-.31l-.08-8.28" vector-effect="non-scaling-stroke"/><path stroke="#0f0f0d" d="M144.78 50.66q.5 1.04.96.82 8.99-4.18 37.83-17.14 2.66-1.2 3.39-2.84" vector-effect="non-scaling-stroke"/><path stroke="#8d8d8b" d="m186.96 31.5.08-.5" vector-effect="non-scaling-stroke"/><path stroke="#0f0f0d" d="M187.04 31c1.61-1.54-2.76-8.91-3.49-10.5q-.87-1.87-2.74-1-18.69 8.78-35.87 15.62" vector-effect="non-scaling-stroke"/><path stroke="#8d8d8b" d="m144.94 35.12-.13-28.94a.59.58-89.5 0 0-.57-.59l-10.74-.15a.6.48-89.5 0 0-.49.6L132.96 34" vector-effect="non-scaling-stroke"/><path stroke="gray" d="m144.94 35.12-.11 1.63a.33.31-11.8 0 0 .47.28l36.42-16.52a.53.5-24.6 0 1 .69.24L187.04 31m-.08.5-42.18 19.16m3.47 7.38 21.68-8.73a.58.51-21.9 0 1 .73.26l4.14 10.12a.58.55-22.3 0 1-.33.73l-24.4 9.92q-.66.27.12.72l51.58 29.9q.43.25.35-.27l-3.06-20.54m-.52-6.4 11.1-1.41a.49.48 82.2 0 1 .54.42l3.69 25.97a.56.4 74 0 0 .63.5l7.08-4.14a.92.43 79.5 0 0 .21-.81l-4.6-45.14m12.27.86 3.8 37.69a.32.32 72.2 0 0 .48.25l26.76-15.48m.75.33 5.06 8.81a1.1.95 59.8 0 1-.27 1.43l-26.22 15.3a.41.37-40.9 0 0-.08.64l31.72 22.53m-5.71 10.54-37.37-26.51a.82.82 47.3 0 0-.88-.04l-7.17 4.11a.35.29 46.7 0 0 .03.53l21.03 16.24a.56.53 37.2 0 1 .13.76l-5.81 7.62m-1.71 1.72q-10.01-8.91-20.77-16.66-.48-.34-.48.19v60q0 .52.46.15l21.08-16.4m1.33.77q2.7 4.53 6.08 8.23a.42.42-39.7 0 1-.06.62l-21.01 16.29a.5.4-46.9 0 0-.05.75l6.99 4.01a.95.7-43.9 0 0 .9-.12l36.54-26.13m1.21-.63q2.61 5.11 6.17 9.26a.66.65-37.9 0 1-.13.96l-32.68 23.33a.2.18-47.4 0 0 0 .32l26.73 15.54a.71.64 32.4 0 1 .27.96q-2.99 4.24-5.11 9.53m-1.93-.44-25.61-15a.39.39 22.9 0 0-.58.23q-.25.96-.1 1.98m-.46 3.79-3.58 34.25m-12-1.25 4.64-45.45a.8.78-71.3 0 0-.37-.77l-6.92-4.08a.4.37-70.8 0 0-.57.3l-3.72 26.25a.51.47 8.3 0 1-.57.39l-9.2-1.18m-2-.5 3.72-26.52q.1-.67-.41-.38l-51.6 29.92q-.56.32-.03.54l24.86 10.23m-.04.71-4.27 9.92a.54.54-67.3 0 1-.7.29l-24.54-9.9a.37.29 13 0 0-.49.23v8.25a.92.47 19.1 0 0 .58.6l39.67 17.94m-52.1-3.35q.25-.63.08-1.19a.56.44-21.1 0 0-.72-.22L96.28 279.5a.52.51 63.9 0 1-.67-.24l-5.22-9.97m.86-.75 41.37-18.74a.92.5-18.7 0 0 .57-.62v-8.19a.46.32-14.5 0 0-.61-.22l-25.04 9.98m-4.18-11.18 24.44-10q.58-.24-.01-.59l-51.45-29.84q-.5-.29-.41.32l3.7 26.17m-11.92 1.87-3.76-26.45a.39.33 73.1 0 0-.5-.33l-6.95 4.04a.87.7-20.5 0 0-.43.73l4.58 45.19a.52.42-6.7 0 1-.47.48l-11.14 1.34m-.29-.29-4.01-39.91a.34.33-16.8 0 0-.49-.26q-13.44 7.02-26.12 15.63m-2.38-2.21-4.3-7.8a.58.52-30.2 0 1 .24-.73l26.37-15.36a.43.39-41.4 0 0 .08-.69l-32.43-23.1a.69.68-54.7 0 1-.15-.95l6.19-8.79m.99-.62q18.01 14.02 36.8 26.89a.95.7 43.9 0 0 .9.12l6.97-4.03a.49.41 46.8 0 0-.04-.75l-20.69-16.08a.74.72 38.1 0 1-.14-1.03l6.5-8.29m1.17 0 20.58 15.92q.46.35.46-.17v-60q0-.53-.46-.17L45.21 135m-8.96-8.04 21.16-16.65a.51.42-47.3 0 0 .04-.77l-6.95-4.04a.83.79-46.6 0 0-.88.05L12.29 132m-.79-.79-5.93-8.3a.52.52 50.7 0 1 .12-.72l32.55-23.2a.41.39 41.6 0 0-.06-.67l-26.4-15.37a.59.47 29.6 0 1-.28-.69l5.04-9.01m.75-1 26.97 15.69a.32.32-72.2 0 0 .48-.25l3.97-39.94m.54-.29 11.03 1.2a.54.53-84 0 1 .46.59l-4.55 45a.93.52-78 0 0 .25.8l7.06 4.19a.45.38-72.7 0 0 .58-.37l3.66-26.08m12.01 1.25-3.87 26.64q-.07.52.33.29l51.59-29.93q.54-.31.02-.53l-24.67-10.08m29.81-8.68q.32-1.26-.9-1.81Q111.57 40.62 91 31.46m-.54-.46 5.07-10.24a.57.5 25.7 0 1 .72-.2l35.92 16.29a.51.43 20.3 0 0 .68-.25q.36-1.34.11-2.6" vector-effect="non-scaling-stroke"/><path stroke="#8d8d8b" d="M76.04 159.75v24.75" vector-effect="non-scaling-stroke"/><path stroke="gray" d="m76.04 184.5-.02 1.65a1.08.71 21.5 0 0 .55.78l62 36a.87.8-44 0 0 .85-.02l62.01-35.98a1.03.77-19.4 0 0 .51-.76l.02-29.67" vector-effect="non-scaling-stroke"/><path stroke="#8d8d8b" d="M201.96 156.5q.71-11.63 0-23.25" vector-effect="non-scaling-stroke"/><path stroke="gray" d="m201.96 133.25.03-19.25a1.15.99 17.1 0 0-.57-.91l-62.18-36.07a.49.47 44.6 0 0-.49-.01l-62.32 36.17a.9.88-15.3 0 0-.45.77l.06 45.8" vector-effect="non-scaling-stroke"/><path stroke="#0f0f0d" d="M201.96 133.25q-.44.62-1.13.64a.66.54 88.1 0 1-.56-.64l-.33-11.25a1.26.86 27.8 0 0-.39-.74q-2.36-2.17.26-3.43a.95.81 81.1 0 0 .48-.78c.11-1.9-.21-3.13-2.01-4.19q-28.57-16.83-57.37-33.29-2.04-1.16-4.04-.01l-58.88 34.17a.76.69-36.7 0 0-.22 1.12q2.49 2.53 5.82.55 27.21-16.15 54.06-31.56a2.42 2.25-43.7 0 1 2.34-.03l55.7 32.25a2.69 2.66-76.1 0 1 1.33 2.23q.74 24.21-1.04 48.75" vector-effect="non-scaling-stroke"/><path stroke="gray" d="M195.98 167.04q-.81-24.69-.51-49.25a.92.91 15.5 0 0-.46-.81l-55.47-32.25a1.07 1.04-44.8 0 0-1.07.01l-55.52 32.22a.95.86 76.5 0 0-.44.8l-.01 54.7" vector-effect="non-scaling-stroke"/><path stroke="#0f0f0d" d="M82.5 172.46q-1.49.06-1.49-1.15 0-26.12-.04-52.25 0-.52-.12-.02-1.59 6.24-1.17 12.63a1.36.97-37.1 0 1-.25.79q-1.56 2.29-.99 5.05a.76.42-1.3 0 0 .69.36q1.42.04 1.4 1.38-.2 8.76.22 17.51a1.24 1.19 65 0 1-.3.88q-1.75 1.99-4.41 2.11m125.92-3.25q-1.43-2.69-1.52.51-.41 13.78-.04 27.46a2.69 2.64-16.1 0 1-1.33 2.36l-58.5 34.01q-1.72 1.01-3.48-.01-28.24-16.41-56.41-32.76-1.27-.74-4.64-3.57" vector-effect="non-scaling-stroke"/><path stroke="#8d8d8b" d="m82.5 172.46.75.08" vector-effect="non-scaling-stroke"/><path stroke="#0f0f0d" d="M83.25 172.54q-.64 2.16 1.5 3.42" vector-effect="non-scaling-stroke"/><path stroke="#8d8d8b" d="m84.75 175.96-2.57.12" vector-effect="non-scaling-stroke"/><path stroke="#0f0f0d" d="M82.18 176.08q-1.93 2.88-1.13 6.21.37 1.53 1.79 2.35l55.72 32.26a1.22.71-37.9 0 0 1.04-.14l55.35-32.05q2.06-1.19 2-3.44l-.18-6.76a.65.5 6.3 0 0-.53-.51c-6.42-1.24-11.03 2.72-17.61-.56q-18.09-9.03-34.04-21.49c-3.31-2.59-5.58-3.3-8.89-.5-12.14 10.28-29.17 20.4-44.7 23.55q-1.54.31-2.98-.3c-2.31-.98-1.57-2.04.07-2.73 15.84-6.67 28.29-15.99 41.33-26.95q2.89-2.43.6-4.2l-6.41-4.95q-1.62-1.25-3.29.48-9.83 10.23-24.11 11.45-1.24.11-.33-.66c8.94-7.59 19.36-17.42 24.39-28.34 1.07-2.31.64-4.42.16-6.79q-.1-.49.37-.31c5.04 1.93 6.55 4.96 10.79 7.81a1.26 1.25-33.1 0 0 .92.19c5.8-.97 13.49-2.63 17.67-7.09a1.33 1.33 32.7 0 1 1.49-.32c5.5 2.3 13.63 7.03 13.07 13.89a.97.91-13.1 0 1-.49.74c-2.35 1.3-17.72 11.34-14.5 13.12" vector-effect="non-scaling-stroke"/><path stroke="#8d8d8b" d="M149.75 140.04q-1.15.83-1.43 2.21a.88.76 27 0 0 .33.81c14.27 11.06 29.25 20.02 47.33 23.98" vector-effect="non-scaling-stroke"/><path stroke="gray" d="M149.75 140.04q5.16-5.26 10.95-9.85c1.37-1.09 3.81-1.19 5.03-2.86 4.37-5.97-9.66-14.87-14.52-16.46a.91.9-55.7 0 0-.87.17q-6.32 5.4-14.56 6.77c-1.92.32-4.49 1.06-5.84-.8q-4.13-5.68-9.6-7.28-2.52-.74-1.55 1.7c2.15 5.36-.39 9.44-4.36 14.76q-10.72 14.38-25.74 24.19-.42.27.08.23c12.42-1.12 24.24-4.27 32.31-13.33a1.59 1.57-54.1 0 1 1.96-.33q3.63 2.05 6.54 4.97a.64.59 46 0 1 .02.87q-20.28 19.41-46.35 29.75m-1.07 3.54.4 6.35a.99.91-77.5 0 0 .45.77l55.55 32.21a.88.77-42.7 0 0 .83-.02l55.51-32.24a1.02.43-25.6 0 0 .58-.65v-7.75a.57.38-6.1 0 0-.65-.34c-3.19.53-10.63 3.19-13.37 1.9-16.35-7.68-26.74-16.01-40.05-25.06a2.67 2.64 47.2 0 0-2.8-.12c-3.21 1.82-6.88 5.09-9.04 6.64-11.34 8.19-30.08 20.07-44.84 18.19" vector-effect="non-scaling-stroke"/><path stroke="#8d8d8b" d="M142.81 125.5c-4.17 1.74-7.45 2.4-11.86 1.14a.96.69 24.8 0 0-.89.17l-3.32 3.94a1.04.98 30.9 0 0 .45 1.57l8.82 3.65a1.04 1.02-58.3 0 0 1.17-.29l7.91-9.34a.44.43-60.4 0 0-.18-.7q-1.36-.45-2.1-.14" vector-effect="non-scaling-stroke"/><path stroke="gray" d="M148.72 168.49q-9.76-5.6-21-6.92-1.52-.18-.25.94 8.78 7.74 17.22 15.8 2.26 2.15 6.01 1.01a.89.58-9.4 0 0 .62-.57q.6-4.2-.94-8.18a4.4 3.19 87.4 0 0-1.66-2.08" vector-effect="non-scaling-stroke"/><path stroke="#8d8d8b" d="m132 179.21-2.25-.42" vector-effect="non-scaling-stroke"/><path stroke="gray" d="m129.75 178.79-3.5-.18a.58.48 3.8 0 0-.6.43c-.08 1.01 13.11 13.4 14.57 14.97 2.74 2.95 5.82 3.83 8.34.14a1.13 1.03 56 0 0 .13-.9c-1.23-4.28-1.17-9.69-6.01-11.7q-4.63-1.92-10.68-2.34" vector-effect="non-scaling-stroke"/><path stroke="#0f0f0d" d="M129.75 178.79q-.27 1.01-1.15 1.68a.44.4-41.4 0 0-.07.63c4.22 4.06 7.63 6.34 12 12.08q2 2.63 5.24 1.55a1.94 1.93 74.5 0 0 1.28-2.27c-.6-2.6-.86-5.98-2.58-7.89-2.58-2.86-7.91-3.42-12.01-3.93a.9.69-2.4 0 1-.71-.5q-.18-.53.25-.93m16.56-8.98q-.23-.39-.82-.75-7.49-4.58-16.24-5.68-.6-.07-.13.39 3.24 3.21 12.62 11.82 2.32 2.13 5.04 1.87a.8.72-85.3 0 0 .65-.61q.87-3.78-1.12-7.04" vector-effect="non-scaling-stroke"/></g><path fill="#1c1b17" d="m278 122.06.06.78c-2.99 5.74-9.05 17.92-15.57 13.38q-7.38-5.14-14.81-10.4-.39-.27-.43.22c-.34 4.14-4.98 8.72-7.49 11.95-2.22 2.86-5.21 4.92-8.43 2.42q-6.4-4.96-12.84-9.92-.59-.46-.59.26l.02 38.5q0 .8.61.3 6.12-4.98 12.46-9.67c2.32-1.72 5.09-2.05 7.13.01.28.28 9.47 10.36 8.93 13.93q-.16 1.01.66.4 7-5.2 14.16-10.14c3.5-2.41 5.88-2.24 8.42 1.12q5.63 7.46 7.71 11.61v1.5q-1 2.5-3.73 4.46-12.31 8.84-24.69 17.6a.5.5 41.8 0 0 .05.85q10.1 5.77 20.19 11.71c2.64 1.56 2.61 4.96 1.17 7.6-3.42 6.25-6.24 15.28-13.88 10.94q-9.49-5.39-18.9-10.94a.36.36-72.3 0 0-.54.28q-1.47 15.05-3.04 30.2c-.34 3.29-1.42 6.46-4.96 6.68q-2.2.14-12.86-1.25c-3.57-.47-4.94-3.1-4.63-6.58q.8-8.82 1.81-17.62.11-.94-.65-.37c-2.8 2.11-10.58.15-13.99-.34-7.21-1.04-6.3-4.55-5.53-10.88q.69-5.62 1.59-10.97.16-.98-.71-.48l-32.47 18.81q-.99.57.01.96 6.51 2.54 12.94 5.17c3.73 1.53 6.22 3.55 4.72 7.79-.49 1.39-4.01 12.77-7.58 13.61q-1.34.32 0 .88 8.3 3.49 16.43 7.35c7.5 3.56 1.22 12.24-2.05 18.94-1.01 2.06-4.41 2.62-6.62 1.65q-14.52-6.33-28.87-13.05a.7.69 12.4 0 0-1 .63q.07 10.67.03 21.54c-.01 3.84-1.53 6-5.3 6.52h-11.75c-4.16-.57-5.42-3.07-5.43-7.16q-.02-10.74-.02-21.31a.34.34 78.5 0 0-.48-.32q-13.35 6.1-26.71 12.07c-2.8 1.26-5.08 2.68-7.76.69-2.64-1.96-4.96-8.94-6.51-12.38-1.73-3.85-.34-6.18 3.35-7.94q7.94-3.8 16.05-7.24 1.3-.55-.02-.83c-3.32-.69-6.46-11.12-7.61-14.28-.93-2.59.49-5.14 2.96-6.24q7.33-3.29 14.52-5.95 1.23-.45.02-1.15l-32.28-18.75q-.91-.52-.75.46 1.26 7.56 2.19 15.33c.54 4.42-1.96 5.85-5.99 6.47-3.41.52-11.24 2.57-14.03.38q-.81-.64-.69.38.98 8.41 1.73 16.83c.45 4.99-1.01 6.96-5.93 7.53-4.71.54-15.56 3.62-16.28-3.87q-1.54-15.8-3.23-31.82a.34.33-17.7 0 0-.5-.25q-9.66 5.32-19.13 10.98c-4.83 2.89-7.06.39-9.47-3.79-2.99-5.19-9.12-11.25-1.3-15.88q9.37-5.55 18.78-10.89a.29.29-42.7 0 0 .02-.49q-13.34-9.44-26.59-18.99c-1.2-.87-1.57-2.11-2.1-3.4v-1.5q3.45-6.55 8.21-12.25c2.45-2.95 5.14-2.28 8.08-.24q7.08 4.9 14.03 10 .77.57.62-.38c-.49-3.02 3.6-7.4 5.53-9.76 3.49-4.29 5.64-7.95 11.03-3.81q6.15 4.71 12.02 9.29.54.42.54-.23V131q0-1.14-.79-.5-5.73 4.67-11.61 9.12c-2.7 2.04-5.75 2.79-8.11.07-1.06-1.22-8.28-8.89-8.74-13.73q-.05-.5-.44-.21-6.77 4.83-13.55 9.62c-3.19 2.25-5.86 3.24-8.62-.06q-5.03-5.99-8.2-12.37v-1.25q1.05-2.62 1.65-3.05 13.45-9.71 27.02-19.24a.38.38 42.5 0 0-.03-.64q-9.65-5.44-19.18-11.17c-3.21-1.92-4.49-4.31-2.61-7.74 4.11-7.44 6.3-16.01 14.95-11q8.97 5.2 17.95 10.45a.44.44-72.1 0 0 .66-.34q1.5-14.91 3.06-30c.41-3.95 1.85-7.24 6.28-6.73q5.87.67 11.74 1.26c4.29.42 4.64 4.47 4.29 8.18q-.75 7.91-1.66 15.8-.1.81.41.59l1.95-.86q.64-.28 1.02-.24 11.65 1.08 14.25 2.02c2.64.95 3.39 3.92 3.01 6.68q-1.03 7.64-2.17 15.09-.09.58.43.28l32.6-18.97q1.1-.64-.06-1.08-6.94-2.65-13.76-5.57c-3.79-1.63-4.96-4.11-3.44-7.93 1.29-3.26 3.75-12.12 7.33-13.02q1.14-.29.08-.75-8.3-3.61-16.51-7.43c-3.14-1.47-4.71-3.92-3.32-7.25 3.32-7.98 4.77-16.71 14.11-12.49q13.5 6.11 27.01 12.22a.34.32 13.2 0 0 .48-.28q.39-10.71.19-21.36c-.09-4.34 1.24-6.84 5.78-6.86 5.78-.03 16.71-2.63 16.72 6.37q0 10.92.08 21.85a.33.32 77.8 0 0 .46.3q13.97-6.32 27.91-12.61c3.39-1.54 6.71-1.47 8.41 2.15q2.43 5.17 4.69 10.4c1.88 4.34-.46 6.29-4.25 8.06q-7.55 3.52-15.21 6.81-1.04.45 0 .85c3.61 1.37 5.95 9.87 7.36 13.38 1.6 3.96-.36 6.16-3.99 7.73q-6.67 2.89-13.5 5.44-1.03.38-.11.92L195 90.99q.58.34.47-.3-1.36-7.77-2.3-15.65c-.87-7.32 7.89-7.07 14.3-7.76 2.36-.25 3.79-.8 5.82.93q.79.67.66-.36-.88-6.96-1.53-14.01c-.54-5.71-1.3-9.77 5.41-10.49 5.1-.54 15.72-3.87 16.53 4.22q1.58 15.75 3.31 31.5a.33.32 71 0 0 .49.24q9.91-5.71 19.66-11.44c6.64-3.91 10.87 7.59 13.41 11.89 2.24 3.8-.14 6.35-3.48 8.33q-9.1 5.39-18.31 10.63a.43.42 47.7 0 0-.03.72q13.04 9.22 26.06 18.6 2.05 1.48 2.53 4.02ZM132.96 34q-2.28.86-4.41-.09-15.94-7.08-31.77-14.43a1.88 1.81 24.8 0 0-2.46.85l-4.62 9.86a.66.45-67.4 0 0 .17.82q.28.1.59-.01l.54.46q-1.16.54-.24 1.01 7.24 3.68 14.69 6.91c8.59 3.74 16.43 7.6 24.76 11.15a2.02 2.01 3.8 0 1 1.15 1.31q.7 2.39 1.6-.09l.02 7.03a.53.52 11.2 0 1-.73.47l-24.18-9.84a.6.56 23.9 0 0-.75.26q-2.62 5.18-4.17 10.76-.28.43-.19.71a1.56 1.15 86.9 0 0 .76.93l20.77 8.46q.87.36.07.82L79.24 97.73q-1.69.99-1.43-.97l3.02-22a.72.61-77.1 0 0-.39-.75q-.37-.14-.69.03-5.96-1.68-12.01-1.25l-1.14.35a1.11.49-86.2 0 0-.46.88l-3.33 22.29a.52.37-75 0 1-.57.47l-4.44-2.56a.99.35-81.2 0 1-.17-.89q1.31-13.04 2.72-26.08c.35-3.31.46-8.05 1.12-12.05.34-2.06.3-3.81.28-5.79q-.01-1.96-1.97-2.17c-.77-.09-12.28-2.33-10.53.22l-.54.29q-.48-.04-.87.18a1.12.77 83 0 0-.42.8q-.23 2.61-.65 5.19c-.67 4.22-.55 8.48-1.4 12.77-.48 2.44-.24 4.9-.65 7.41-.74 4.58-.78 7.33-.56 11.4q.06 1.07-.89.53-12.34-7.01-24.52-14.27-.92-.55-1.46.49l-.75 1c-1.49-1.03-5.56 7.48-6.16 8.5a1.68 1.64 30.4 0 0 .62 2.27l24.29 14.17a.84.81-47.2 0 1 .03 1.38l-29.51 21q-2.3 1.64-.66 4.01l4.5 6.5a.83.69 64.5 0 0 .79.36l1.06-.23.79.79q1.28.91 2.77-.19 10.8-8 30.15-21.59 2.89-2.03 5.06-2.71a1.3.98-33.7 0 1 .91.05l3.25 1.77a.89.89 40.4 0 1 .12 1.48L37 124.49q-.85.66-1.23 1.44-.64 1.33.48 1.03l6.76 8.59a.78.71 61.1 0 0 .79.27q.77-.25 1.41-.82.55 1.19 1.48.43 8.22-6.7 15.93-12.34 1.37-1 1.37.66l-.02 53.69q0 .78-.68.29c-3.56-2.56-6.63-5.61-10.19-8.13-1.28-.91-7.96-7.41-8.89-5.35q-.62-.78-1.17 0c-1.16-2.04-6.72 6.69-7.5 7.78a1.82 1.7-53.3 0 0 .27 2.41l18.39 14.35a1.04.8 41.6 0 1 .26 1.39q-2.05 1.89-4.68 2.66a1.18.34 40.4 0 1-.88-.4q-17.7-13.07-36.16-25.02l-.99.62-1.08.07a1.12 1.07-73.3 0 0-.83.47l-5.21 7.55q-1.06 1.54.71 2.81l29.68 21.27a1.1 1.07-41.9 0 1-.13 1.82q-11.09 6.43-21.87 12.53c-5.35 3.03-.58 6.9 1.1 10.41a1.19.78 75.8 0 0 .67.62q.48.09.96-.13.55 1.56 2.38 2.21 12.71-5.93 24.01-13.03a.99.99-17.4 0 1 1.52.79q.43 8.7 1.6 17.32.12.93.81 2.3a1.77 1.71 35.7 0 1 .17.94q-.58 5.05.4 10.03c.32 1.65-.56 6.23 2.11 6.19l.29.29c-.02 2.29 3.06 1.25 4.78.8 2.71-.7 6.39.95 7.59-2.63q.44-1.31.11-4.33-1.99-18.69-3.7-37.44c-.31-3.35.86-5.08 4.24-5.34a.59.59-6.3 0 1 .63.5l3.64 22.93a.84.57 88 0 0 .48.66q.41.1.9-.15 6.05 0 11.92-1.87c.8-.59 1.12-.87.95-1.93q-1.71-10.41-2.67-20.6-.16-1.67 1.3-.82l44.41 25.81q1.84 1.07-.15 1.9-9.39 3.92-18.66 7.54-.93.36-1.45 2.04 1.5 5.81 4.18 11.18-.13 1.57 1.22 1.03 10.15-4.11 20.3-8.23c.57-.23 2.68-.88 2 .44a1.59.4 80.3 0 0-.08 1.01l.28 3.25a1.1.77-21.3 0 1-.57.86q-2.62 1.48-5.38 2.71-16.9 7.51-33.69 15.24c-.47.21-1.62 1.25-.37 1.48l-.86.75q.85 5.38 4.28 10.72a1.79 1.76-28.5 0 0 2.22.64l36.26-16.21-.07 29.52a.65.45-88.2 0 0 .41.63q5.51.44 11-.14a.78.58 87.6 0 0 .52-.76L145 263.5a.43.33-80.9 0 1 .47-.44l36.29 16.42a.68.48 24.4 0 0 .82-.16l4.56-9.9a.6.53 27.2 0 0-.28-.71l-1.61-.92q1.54-.31.01-1-19.07-8.67-38.04-17.54a.95.65-84.8 0 1-.42-.75l-.29-3.74q-.17-2.26 1.91-1.41l20.52 8.45q2.08.86 3.02-1.15c.49-1.03 4.99-9.7 3.04-10.19l.04-.71c.86-2.09-1-1.63-1.98-2.02q-9.91-3.94-18.84-7.8-1.77-.77-.04-1.77l44.61-25.88q1.4-.81 1.19.71l-3.01 21.5a1.3.67-72.3 0 0 .15.89q.45.57 1.38.58l2 .5q-1.1.11-.72.91a1.06.87-4.7 0 0 .75.52l7.89 1.28q.02 0 .78-.25 1.2-.4 2.07-1.39a2.17 1.03 86.2 0 0 .41-1.04l3.47-22.56a.84.71-72 0 1 1.09-.68l3.44 2.05a1.25.47-89.7 0 1 .36.96c.36 4.54-.86 9.98-1.12 13.07-.44 5.21-.4 11.37-1.65 16.36-.6 2.37-.26 5.2-.71 7.53-.21 1.09-1.53 8.28.65 7.78q5.94 1.19 12 1.25c.8.67 1.26.12 1.35-.69q1.79-16.24 3.39-32.49a1.02.76-72.9 0 0-.3-.85q-.4-.28-.86-.22l.46-3.79q.75.42 1.51.23a1.39.92-27.8 0 1 .9.09q11.22 6.42 22.35 12.94.98.58 1.53-.47.75.54 1.93.44 3.69-3.69 5.75-8.47c.89-2.06.17-3.98-2.18-4.21q-.51-.05-.94-.3l-20.9-12.18a1.36 1.32 42 0 1-.15-2.25l30.2-21.51a1.81 1.38 56.9 0 0 .16-2.19q-3-4.91-7.19-8.79l-1.21.63q-2.37-.08-4.16 1.4-1.32 1.08-1.41 1.15-15.24 10.87-30.52 21.72a1.76 1.52-46.5 0 1-1.75.17l-4.07-2.24a.64.59-48.7 0 1-.02-1.03l18.96-14.8a1.82 1.75-34.2 0 0 .49-2.3q-2.68-4.59-6.91-7.72l-1.33-.77q-.71-1.01-1.74-.18-8.93 7.2-17.34 13.52-1.33 1-1.33-.59l-.06-52.5q0-2.21 1.74-.75 8.11 6.79 18.44 13.22l1.71-1.72c.82 2.2 6.23-6.42 6.55-6.93a1.83 1.81 35.1 0 0-.43-2.41l-17.68-13.78a1.69 1.48 42.7 0 1-.26-2.44q1.96-1.72 4.38-1.87a1.36.26 37.8 0 1 .93.47l34.6 24.64a1.01.71 43.8 0 0 .91.14l1.04-.53 6.46-8.89a.82.71-44.2 0 0 .07-.85q-.3-.48-.82-.8.11-1.14-1.43-2.26-13.82-10.1-27.85-19.9a.67.67 47.6 0 1 .05-1.12l24.01-13.95q2.22-1.29 1.12-3.07l-5.13-8.4a.56.55-23.8 0 0-.63-.24q-.21.06-.35.23l-.75-.33q.4-1.7-.95-.91-12.02 7-24.04 13.9a.96.96-17.3 0 1-1.43-.75q-1.57-17.2-3.5-34.34c-.05-.41-.73-2.16-1.12-.36q.37-2.54-1.65-2.44-5.4.28-10.62 1.58c-2.68.49.17 15.64.39 16.9.48 2.66.2 5.29.63 7.98q.52 3.35.71 5.91c.22 2.95 1.08 5.54 1.05 8.45q-.02 2.41.15 4.84a1.13.35 83.3 0 1-.18.98l-4.17 2.59a.64.5 72.6 0 1-.79-.54l-3.55-23.99a.96.75-88.9 0 0-.56-.75c-3.77-1.15-8.09.59-11.64.89a.87.64 2.9 0 0-.72.48q-.13.43.03.87l.52 6.4q-1.64 1.86-1.03 4.25c1.05 4.09 1.51 8.41 2.14 12.59q.27 1.84-1.46.83L153.94 71.8q-1.67-.96.21-1.72l20.57-8.32q1.88-.76 1-2.95l-4.03-9.99a1.72 1.58-22 0 0-2.19-.82l-21.19 8.55a1.49.73-12.3 0 0-.81.64q-.33.81.75.85l-2.98 1.21a.32.3 79.7 0 1-.41-.31l-.08-8.28q.5 1.04.96.82 8.99-4.18 37.83-17.14 2.66-1.2 3.39-2.84l.08-.5c1.61-1.54-2.76-8.91-3.49-10.5q-.87-1.87-2.74-1-18.69 8.78-35.87 15.62l-.13-28.94a.59.58-89.5 0 0-.57-.59l-10.74-.15a.6.48-89.5 0 0-.49.6L132.96 34Z"/><path fill="#fefefe" d="m144.94 35.12-.11 1.63a.33.31-11.8 0 0 .47.28l36.42-16.52a.53.5-24.6 0 1 .69.24L187.04 31l-.08.5-42.18 19.16.08 8.28a.32.3 79.7 0 0 .41.31l2.98-1.21 21.68-8.73a.58.51-21.9 0 1 .73.26l4.14 10.12a.58.55-22.3 0 1-.33.73l-24.4 9.92q-.66.27.12.72l51.58 29.9q.43.25.35-.27l-3.06-20.54-.52-6.4 11.1-1.41a.49.48 82.2 0 1 .54.42l3.69 25.97a.56.4 74 0 0 .63.5l7.08-4.14a.92.43 79.5 0 0 .21-.81l-4.6-45.14q5.22-1.3 10.62-1.58 2.02-.1 1.65 2.44l3.8 37.69a.32.32 72.2 0 0 .48.25l26.76-15.48.75.33 5.06 8.81a1.1.95 59.8 0 1-.27 1.43l-26.22 15.3a.41.37-40.9 0 0-.08.64l31.72 22.53q.52.32.82.8a.82.71-44.2 0 1-.07.85l-6.46 8.89-37.37-26.51a.82.82 47.3 0 0-.88-.04l-7.17 4.11a.35.29 46.7 0 0 .03.53l21.03 16.24a.56.53 37.2 0 1 .13.76l-5.81 7.62-1.71 1.72q-10.01-8.91-20.77-16.66-.48-.34-.48.19v60q0 .52.46.15l21.08-16.4 1.33.77q2.7 4.53 6.08 8.23a.42.42-39.7 0 1-.06.62l-21.01 16.29a.5.4-46.9 0 0-.05.75l6.99 4.01a.95.7-43.9 0 0 .9-.12l36.54-26.13 1.21-.63q2.61 5.11 6.17 9.26a.66.65-37.9 0 1-.13.96l-32.68 23.33a.2.18-47.4 0 0 0 .32l26.73 15.54a.71.64 32.4 0 1 .27.96q-2.99 4.24-5.11 9.53-1.18.1-1.93-.44l-25.61-15a.39.39 22.9 0 0-.58.23q-.25.96-.1 1.98l-.46 3.79-3.58 34.25q-6.06-.06-12-1.25l4.64-45.45a.8.78-71.3 0 0-.37-.77l-6.92-4.08a.4.37-70.8 0 0-.57.3l-3.72 26.25a.51.47 8.3 0 1-.57.39l-9.2-1.18-2-.5 3.72-26.52q.1-.67-.41-.38l-51.6 29.92q-.56.32-.03.54l24.86 10.23-.04.71-4.27 9.92a.54.54-67.3 0 1-.7.29l-24.54-9.9a.37.29 13 0 0-.49.23v8.25a.92.47 19.1 0 0 .58.6l39.67 17.94 1.61.92a.6.53 27.2 0 1 .28.71l-4.56 9.9a.68.48 24.4 0 1-.82.16l-36.29-16.42a.43.33-80.9 0 0-.47.44l.01 30.19a.78.58 87.6 0 1-.52.76q-5.49.58-11 .14a.65.45-88.2 0 1-.41-.63l.07-29.52q.25-.63.08-1.19a.56.44-21.1 0 0-.72-.22L96.28 279.5a.52.51 63.9 0 1-.67-.24l-5.22-9.97.86-.75 41.37-18.74a.92.5-18.7 0 0 .57-.62v-8.19a.46.32-14.5 0 0-.61-.22l-25.04 9.98q-2.68-5.37-4.18-11.18l24.44-10q.58-.24-.01-.59l-51.45-29.84q-.5-.29-.41.32l3.7 26.17q-5.87 1.87-11.92 1.87l-3.76-26.45a.39.33 73.1 0 0-.5-.33l-6.95 4.04a.87.7-20.5 0 0-.43.73l4.58 45.19a.52.42-6.7 0 1-.47.48l-11.14 1.34-.29-.29-4.01-39.91a.34.33-16.8 0 0-.49-.26q-13.44 7.02-26.12 15.63-1.83-.65-2.38-2.21l-4.3-7.8a.58.52-30.2 0 1 .24-.73l26.37-15.36a.43.39-41.4 0 0 .08-.69l-32.43-23.1a.69.68-54.7 0 1-.15-.95l6.19-8.79.99-.62q18.01 14.02 36.8 26.89a.95.7 43.9 0 0 .9.12l6.97-4.03a.49.41 46.8 0 0-.04-.75l-20.69-16.08a.74.72 38.1 0 1-.14-1.03l6.5-8.29q.55-.78 1.17 0l20.58 15.92q.46.35.46-.17v-60q0-.53-.46-.17L45.21 135q-.64.57-1.41.82a.78.71 61.1 0 1-.79-.27l-6.76-8.59 21.16-16.65a.51.42-47.3 0 0 .04-.77l-6.95-4.04a.83.79-46.6 0 0-.88.05L12.29 132l-.79-.79-5.93-8.3a.52.52 50.7 0 1 .12-.72l32.55-23.2a.41.39 41.6 0 0-.06-.67l-26.4-15.37a.59.47 29.6 0 1-.28-.69l5.04-9.01.75-1 26.97 15.69a.32.32-72.2 0 0 .48-.25l3.97-39.94.54-.29 11.03 1.2a.54.53-84 0 1 .46.59l-4.55 45a.93.52-78 0 0 .25.8l7.06 4.19a.45.38-72.7 0 0 .58-.37l3.66-26.08q6.05-.43 12.01 1.25l-3.87 26.64q-.07.52.33.29l51.59-29.93q.54-.31.02-.53l-24.67-10.08q1.55-5.58 4.17-10.76a.6.56 23.9 0 1 .75-.26l24.18 9.84a.53.52 11.2 0 0 .73-.47l-.02-7.03q.32-1.26-.9-1.81Q111.57 40.62 91 31.46l-.54-.46 5.07-10.24a.57.5 25.7 0 1 .72-.2l35.92 16.29a.51.43 20.3 0 0 .68-.25q.36-1.34.11-2.6l.05-27.96a.6.48-89.5 0 1 .49-.6l10.74.15a.59.58-89.5 0 1 .57.59l.13 28.94Zm-68.9 124.63v24.75l-.02 1.65a1.08.71 21.5 0 0 .55.78l62 36a.87.8-44 0 0 .85-.02l62.01-35.98a1.03.77-19.4 0 0 .51-.76l.02-29.67q.71-11.63 0-23.25l.03-19.25a1.15.99 17.1 0 0-.57-.91l-62.18-36.07a.49.47 44.6 0 0-.49-.01l-62.32 36.17a.9.88-15.3 0 0-.45.77l.06 45.8Z"/><path fill="#020202" d="M132.96 34q.25 1.26-.11 2.6a.51.43 20.3 0 1-.68.25L96.25 20.56a.57.5 25.7 0 0-.72.2L90.46 31q-.31.11-.59.01a.66.45-67.4 0 1-.17-.82l4.62-9.86a1.88 1.81 24.8 0 1 2.46-.85q15.83 7.35 31.77 14.43 2.13.95 4.41.09Zm54.08-3-4.63-10.25a.53.5-24.6 0 0-.69-.24L145.3 37.03a.33.31-11.8 0 1-.47-.28l.11-1.63q17.18-6.84 35.87-15.62 1.87-.87 2.74 1c.73 1.59 5.1 8.96 3.49 10.5ZM91 31.46q20.57 9.16 41.06 18.48 1.22.55.9 1.81-.9 2.48-1.6.09a2.02 2.01 3.8 0 0-1.15-1.31c-8.33-3.55-16.17-7.41-24.76-11.15Q98 36.15 90.76 32.47q-.92-.47.24-1.01Zm95.96.04q-.73 1.64-3.39 2.84-28.84 12.96-37.83 17.14-.46.22-.96-.82l42.18-19.16ZM67.74 72.79l-3.66 26.08a.45.38-72.7 0 1-.58.37l-7.06-4.19a.93.52-78 0 1-.25-.8l4.55-45a.54.53-84 0 0-.46-.59l-11.03-1.2c-1.75-2.55 9.76-.31 10.53-.22q1.96.21 1.97 2.17c.02 1.98.06 3.73-.28 5.79-.66 4-.77 8.74-1.12 12.05q-1.41 13.04-2.72 26.08a.99.35-81.2 0 0 .17.89l4.44 2.56a.52.37-75 0 0 .57-.47l3.33-22.29a1.11.49-86.2 0 1 .46-.88l1.14-.35Z"/><path fill="#020202" d="m48.71 47.75-3.97 39.94a.32.32-72.2 0 1-.48.25L17.29 72.25q.54-1.04 1.46-.49 12.18 7.26 24.52 14.27.95.54.89-.53c-.22-4.07-.18-6.82.56-11.4.41-2.51.17-4.97.65-7.41.85-4.29.73-8.55 1.4-12.77q.42-2.58.65-5.19a1.12.77 83 0 1 .42-.8q.39-.22.87-.18Zm150.35 32.4 3.06 20.54q.08.52-.35.27l-51.58-29.9q-.78-.45-.12-.72l24.4-9.92a.58.55-22.3 0 0 .33-.73l-4.14-10.12a.58.51-21.9 0 0-.73-.26l-21.68 8.73q-1.08-.04-.75-.85a1.49.73-12.3 0 1 .81-.64L169.5 48a1.72 1.58-22 0 1 2.19.82l4.03 9.99q.88 2.19-1 2.95l-20.57 8.32q-1.88.76-.21 1.72l44.77 26.02q1.73 1.01 1.46-.83c-.63-4.18-1.09-8.5-2.14-12.59q-.61-2.39 1.03-4.25Zm18.13-31.01 4.6 45.14a.92.43 79.5 0 1-.21.81l-7.08 4.14a.56.4 74 0 1-.63-.5l-3.69-25.97a.49.48 82.2 0 0-.54-.42l-11.1 1.41q-.16-.44-.03-.87a.87.64 2.9 0 1 .72-.48c3.55-.3 7.87-2.04 11.64-.89a.96.75-88.9 0 1 .56.75l3.55 23.99a.64.5 72.6 0 0 .79.54l4.17-2.59a1.13.35 83.3 0 0 .18-.98q-.17-2.43-.15-4.84c.03-2.91-.83-5.5-1.05-8.45q-.19-2.56-.71-5.91c-.43-2.69-.15-5.32-.63-7.98-.22-1.26-3.07-16.41-.39-16.9Zm43.31 23.32-26.76 15.48a.32.32 72.2 0 1-.48-.25L229.46 50c.39-1.8 1.07-.05 1.12.36q1.93 17.14 3.5 34.34a.96.96-17.3 0 0 1.43.75q12.02-6.9 24.04-13.9 1.35-.79.95.91ZM103.15 60.43l24.67 10.08q.52.22-.02.53l-51.59 29.93q-.4.23-.33-.29l3.87-26.64q.32-.17.69-.03a.72.61-77.1 0 1 .39.75l-3.02 22q-.26 1.96 1.43.97l45.32-26.38q.8-.46-.07-.82l-20.77-8.46a1.56 1.15 86.9 0 1-.76-.93q-.09-.28.19-.71Zm168.31 61.07-31.72-22.53a.41.37-40.9 0 1 .08-.64l26.22-15.3a1.1.95 59.8 0 0 .27-1.43l-5.06-8.81q.14-.17.35-.23a.56.55-23.8 0 1 .63.24l5.13 8.4q1.1 1.78-1.12 3.07l-24.01 13.95a.67.67 47.6 0 0-.05 1.12q14.03 9.8 27.85 19.9 1.54 1.12 1.43 2.26ZM16.54 73.25l-5.04 9.01a.59.47 29.6 0 0 .28.69l26.4 15.37a.41.39 41.6 0 1 .06.67l-32.55 23.2a.52.52 54.3 0 0-.12.72l5.93 8.3-1.06.23a.83.69 64.5 0 1-.79-.36l-4.5-6.5q-1.64-2.37.66-4.01l29.51-21a.84.81-47.2 0 0-.03-1.38L11 84.02a1.68 1.64 30.4 0 1-.62-2.27c.6-1.02 4.67-9.53 6.16-8.5Zm185.42 60q-.44.62-1.13.64a.66.54 88.1 0 1-.56-.64l-.33-11.25a1.26.86 27.8 0 0-.39-.74q-2.36-2.17.26-3.43a.95.81 81.1 0 0 .48-.78c.11-1.9-.21-3.13-2.01-4.19q-28.57-16.83-57.37-33.29-2.04-1.16-4.04-.01l-58.88 34.17a.76.69-36.7 0 0-.22 1.12q2.49 2.53 5.82.55 27.21-16.15 54.06-31.56a2.42 2.25-43.7 0 1 2.34-.03l55.7 32.25a2.69 2.66-76.1 0 1 1.33 2.23q.74 24.21-1.04 48.75-.81-24.69-.51-49.25a.92.91 15.5 0 0-.46-.81l-55.47-32.25a1.07 1.04-44.8 0 0-1.07.01l-55.52 32.22a.95.86 76.5 0 0-.44.8l-.01 54.7q-1.49.06-1.49-1.15 0-26.12-.04-52.25 0-.52-.12-.02-1.59 6.24-1.17 12.63a1.36.97-37.1 0 1-.25.79q-1.56 2.29-.99 5.05a.76.42-1.3 0 0 .69.36q1.42.04 1.4 1.38-.2 8.76.22 17.51a1.24 1.19 65 0 1-.3.88q-1.75 1.99-4.41 2.11l-.06-45.8a.9.88-15.3 0 1 .45-.77l62.32-36.17a.49.47 44.6 0 1 .49.01l62.18 36.07a1.15.99 17.1 0 1 .57.91l-.03 19.25Z"/><path fill="#1c1b17" d="M201.96 133.25q.71 11.62 0 23.25-1.43-2.69-1.52.51-.41 13.78-.04 27.46a2.69 2.64-16.1 0 1-1.33 2.36l-58.5 34.01q-1.72 1.01-3.48-.01-28.24-16.41-56.41-32.76-1.27-.74-4.64-3.57v-24.75q2.66-.12 4.41-2.11a1.24 1.19 65 0 0 .3-.88q-.42-8.75-.22-17.51.02-1.34-1.4-1.38a.76.42-1.3 0 1-.69-.36q-.57-2.76.99-5.05a1.36.97-37.1 0 0 .25-.79q-.42-6.39 1.17-12.63.12-.5.12.02.04 26.13.04 52.25 0 1.21 1.49 1.15l.75.08q-.64 2.16 1.5 3.42l-2.57.12q-1.93 2.88-1.13 6.21.37 1.53 1.79 2.35l55.72 32.26a1.22.71-37.9 0 0 1.04-.14l55.35-32.05q2.06-1.19 2-3.44l-.18-6.76a.65.5 6.3 0 0-.53-.51c-6.42-1.24-11.03 2.72-17.61-.56q-18.09-9.03-34.04-21.49c-3.31-2.59-5.58-3.3-8.89-.5-12.14 10.28-29.17 20.4-44.7 23.55q-1.54.31-2.98-.3c-2.31-.98-1.57-2.04.07-2.73 15.84-6.67 28.29-15.99 41.33-26.95q2.89-2.43.6-4.2l-6.41-4.95q-1.62-1.25-3.29.48-9.83 10.23-24.11 11.45-1.24.11-.33-.66c8.94-7.59 19.36-17.42 24.39-28.34 1.07-2.31.64-4.42.16-6.79q-.1-.49.37-.31c5.04 1.93 6.55 4.96 10.79 7.81a1.26 1.25-33.1 0 0 .92.19c5.8-.97 13.49-2.63 17.67-7.09a1.33 1.33 32.7 0 1 1.49-.32c5.5 2.3 13.63 7.03 13.07 13.89a.97.91-13.1 0 1-.49.74c-2.35 1.3-17.72 11.34-14.5 13.12q-1.15.83-1.43 2.21a.88.76 27 0 0 .33.81c14.27 11.06 29.25 20.02 47.33 23.98q1.78-24.54 1.04-48.75a2.69 2.66-76.1 0 0-1.33-2.23l-55.7-32.25a2.42 2.25-43.7 0 0-2.34.03Q110.8 99.25 83.59 115.4q-3.33 1.98-5.82-.55a.76.69-36.7 0 1 .22-1.12l58.88-34.17q2-1.15 4.04.01 28.8 16.46 57.37 33.29c1.8 1.06 2.12 2.29 2.01 4.19a.95.81 81.1 0 1-.48.78q-2.62 1.26-.26 3.43a1.26.86 27.8 0 1 .39.74l.33 11.25a.66.54 88.1 0 0 .56.64q.69-.02 1.13-.64Zm-59.15-7.75c-4.17 1.74-7.45 2.4-11.86 1.14a.96.69 24.8 0 0-.89.17l-3.32 3.94a1.04.98 30.9 0 0 .45 1.57l8.82 3.65a1.04 1.02-58.3 0 0 1.17-.29l7.91-9.34a.44.43-60.4 0 0-.18-.7q-1.36-.45-2.1-.14Z"/><path fill="#fefefe" d="M195.98 167.04c-18.08-3.96-33.06-12.92-47.33-23.98a.88.76 27 0 1-.33-.81q.28-1.38 1.43-2.21 5.16-5.26 10.95-9.85c1.37-1.09 3.81-1.19 5.03-2.86 4.37-5.97-9.66-14.87-14.52-16.46a.91.9-55.7 0 0-.87.17q-6.32 5.4-14.56 6.77c-1.92.32-4.49 1.06-5.84-.8q-4.13-5.68-9.6-7.28-2.52-.74-1.55 1.7c2.15 5.36-.39 9.44-4.36 14.76q-10.72 14.38-25.74 24.19-.42.27.08.23c12.42-1.12 24.24-4.27 32.31-13.33a1.59 1.57-54.1 0 1 1.96-.33q3.63 2.05 6.54 4.97a.64.59 46 0 1 .02.87q-20.28 19.41-46.35 29.75l-.75-.08.01-54.7a.95.86 76.5 0 1 .44-.8l55.52-32.22a1.07 1.04-44.8 0 1 1.07-.01l55.47 32.25a.92.91 15.5 0 1 .46.81q-.3 24.56.51 49.25Z"/><path fill="#020202" d="M36.25 126.96q-1.12.3-.48-1.03.38-.78 1.23-1.44l17.55-13.68a.89.89 40.4 0 0-.12-1.48l-3.25-1.77a1.3.98-33.7 0 0-.91-.05q-2.17.68-5.06 2.71-19.35 13.59-30.15 21.59-1.49 1.1-2.77.19l37.33-26.45a.83.79-46.6 0 1 .88-.05l6.95 4.04a.51.42-47.3 0 1-.04.77l-21.16 16.65Zm229.5 5.08-1.04.53a1.01.71 43.8 0 1-.91-.14l-34.6-24.64a1.36.26 37.8 0 0-.93-.47q-2.42.15-4.38 1.87a1.69 1.48 42.7 0 0 .26 2.44l17.68 13.78a1.83 1.81 35.1 0 1 .43 2.41c-.32.51-5.73 9.13-6.55 6.93l5.81-7.62a.56.53 37.2 0 0-.13-.76l-21.03-16.24a.35.29 46.7 0 1-.03-.53l7.17-4.11a.82.82 47.3 0 1 .88.04l37.37 26.51Zm-116 8c-3.22-1.78 12.15-11.82 14.5-13.12a.97.91-13.1 0 0 .49-.74c.56-6.86-7.57-11.59-13.07-13.89a1.33 1.33 32.7 0 0-1.49.32c-4.18 4.46-11.87 6.12-17.67 7.09a1.26 1.25-33.1 0 1-.92-.19c-4.24-2.85-5.75-5.88-10.79-7.81q-.47-.18-.37.31c.48 2.37.91 4.48-.16 6.79-5.03 10.92-15.45 20.75-24.39 28.34q-.91.77.33.66 14.28-1.22 24.11-11.45 1.67-1.73 3.29-.48l6.41 4.95q2.29 1.77-.6 4.2c-13.04 10.96-25.49 20.28-41.33 26.95-1.64.69-2.38 1.75-.07 2.73q1.44.61 2.98.3c15.53-3.15 32.56-13.27 44.7-23.55 3.31-2.8 5.58-2.09 8.89.5q15.95 12.46 34.04 21.49c6.58 3.28 11.19-.68 17.61.56a.65.5 6.3 0 1 .53.51l.18 6.76q.06 2.25-2 3.44l-55.35 32.05a1.22.71-37.9 0 1-1.04.14l-55.72-32.26q-1.42-.82-1.79-2.35-.8-3.33 1.13-6.21l.4 6.35a.99.91-77.5 0 0 .45.77l55.55 32.21a.88.77-42.7 0 0 .83-.02l55.51-32.24a1.02.43-25.6 0 0 .58-.65v-7.75a.57.38-6.1 0 0-.65-.34c-3.19.53-10.63 3.19-13.37 1.9-16.35-7.68-26.74-16.01-40.05-25.06a2.67 2.64 47.2 0 0-2.8-.12c-3.21 1.82-6.88 5.09-9.04 6.64-11.34 8.19-30.08 20.07-44.84 18.19q-2.14-1.26-1.5-3.42 26.07-10.34 46.35-29.75a.64.59 46 0 0-.02-.87q-2.91-2.92-6.54-4.97a1.59 1.57-54.1 0 0-1.96.33c-8.07 9.06-19.89 12.21-32.31 13.33q-.5.04-.08-.23 15.02-9.81 25.74-24.19c3.97-5.32 6.51-9.4 4.36-14.76q-.97-2.44 1.55-1.7 5.47 1.6 9.6 7.28c1.35 1.86 3.92 1.12 5.84.8q8.24-1.37 14.56-6.77a.91.9-55.7 0 1 .87-.17c4.86 1.59 18.89 10.49 14.52 16.46-1.22 1.67-3.66 1.77-5.03 2.86q-5.79 4.59-10.95 9.85ZM44.21 164.25c.93-2.06 7.61 4.44 8.89 5.35 3.56 2.52 6.63 5.57 10.19 8.13q.68.49.68-.29l.02-53.69q0-1.66-1.37-.66-7.71 5.64-15.93 12.34-.93.76-1.48-.43l19.58-15.17q.46-.36.46.17v60q0 .52-.46.17l-20.58-15.92ZM234 136.47q-10.33-6.43-18.44-13.22-1.74-1.46-1.74.75l.06 52.5q0 1.59 1.33.59 8.41-6.32 17.34-13.52 1.03-.83 1.74.18l-21.08 16.4q-.46.37-.46-.15v-60q0-.53.48-.19 10.76 7.75 20.77 16.66Z"/><path fill="#fefefe" d="M130.95 126.64c4.41 1.26 7.69.6 11.86-1.14q.74-.31 2.1.14a.44.43-60.4 0 1 .18.7l-7.91 9.34a1.04 1.02-58.3 0 1-1.17.29l-8.82-3.65a1.04.98 30.9 0 1-.45-1.57l3.32-3.94a.96.69 24.8 0 1 .89-.17Zm-48.77 49.44 2.57-.12c14.76 1.88 33.5-10 44.84-18.19 2.16-1.55 5.83-4.82 9.04-6.64a2.67 2.64 47.2 0 1 2.8.12c13.31 9.05 23.7 17.38 40.05 25.06 2.74 1.29 10.18-1.37 13.37-1.9a.57.38-6.1 0 1 .65.34v7.75a1.02.43-25.6 0 1-.58.65l-55.51 32.24a.88.77-42.7 0 1-.83.02L83.03 183.2a.99.91-77.5 0 1-.45-.77l-.4-6.35Zm66.54-7.59q-9.76-5.6-21-6.92-1.52-.18-.25.94 8.78 7.74 17.22 15.8 2.26 2.15 6.01 1.01a.89.58-9.4 0 0 .62-.57q.6-4.2-.94-8.18a4.4 3.19 87.4 0 0-1.66-2.08ZM132 179.21l-2.25-.42-3.5-.18a.58.48 3.8 0 0-.6.43c-.08 1.01 13.11 13.4 14.57 14.97 2.74 2.95 5.82 3.83 8.34.14a1.13 1.03 56 0 0 .13-.9c-1.23-4.28-1.17-9.69-6.01-11.7q-4.63-1.92-10.68-2.34Z"/><path fill="#020202" d="m201.96 156.5-.02 29.67a1.03.77-19.4 0 1-.51.76l-62.01 35.98a.87.8-44 0 1-.85.02l-62-36a1.08.71 21.5 0 1-.55-.78l.02-1.65q3.37 2.83 4.64 3.57 28.17 16.35 56.41 32.76 1.76 1.02 3.48.01l58.5-34.01a2.69 2.64-16.1 0 0 1.33-2.36q-.37-13.68.04-27.46.09-3.2 1.52-.51Z"/><path fill="#020202" d="M148.72 168.49a4.4 3.19 87.4 0 1 1.66 2.08q1.54 3.98.94 8.18a.89.58-9.4 0 1-.62.57q-3.75 1.14-6.01-1.01-8.44-8.06-17.22-15.8-1.27-1.12.25-.94 11.24 1.32 21 6.92Zm-.16 1.74q-.23-.39-.82-.75-7.49-4.58-16.24-5.68-.6-.07-.13.39 3.24 3.21 12.62 11.82 2.32 2.13 5.04 1.87a.8.72-85.3 0 0 .65-.61q.87-3.78-1.12-7.04Zm-105.52-5.98-6.5 8.29a.74.72 38.1 0 0 .14 1.03l20.69 16.08a.49.41 46.8 0 1 .04.75l-6.97 4.03a.95.7 43.9 0 1-.9-.12q-18.79-12.87-36.8-26.89 18.46 11.95 36.16 25.02a1.18.34 40.4 0 0 .88.4q2.63-.77 4.68-2.66a1.04.8 41.6 0 0-.26-1.39l-18.39-14.35a1.82 1.7-53.3 0 1-.27-2.41c.78-1.09 6.34-9.82 7.5-7.78Z"/><path fill="#1c1b17" d="M148.56 170.23q1.99 3.26 1.12 7.04a.8.72-85.3 0 1-.65.61q-2.72.26-5.04-1.87-9.38-8.61-12.62-11.82-.47-.46.13-.39 8.75 1.1 16.24 5.68.59.36.82.75Z"/><path fill="#020202" d="m265.01 168.17-36.54 26.13a.95.7-43.9 0 1-.9.12l-6.99-4.01a.5.4-46.9 0 1 .05-.75l21.01-16.29a.42.42-39.7 0 0 .06-.62q-3.38-3.7-6.08-8.23 4.23 3.13 6.91 7.72a1.82 1.75-34.2 0 1-.49 2.3l-18.96 14.8a.64.59-48.7 0 0 .02 1.03l4.07 2.24a1.76 1.52-46.5 0 0 1.75-.17q15.28-10.85 30.52-21.72.09-.07 1.41-1.15 1.79-1.48 4.16-1.4Zm1.21-.63q4.19 3.88 7.19 8.79a1.81 1.38 56.9 0 1-.16 2.19l-30.2 21.51a1.36 1.32 42 0 0 .15 2.25l20.9 12.18q.43.25.94.3c2.35.23 3.07 2.15 2.18 4.21q-2.06 4.78-5.75 8.47 2.12-5.29 5.11-9.53a.71.64 32.4 0 0-.27-.96l-26.73-15.54a.2.18-47.4 0 1 0-.32l32.68-23.33a.66.65-37.9 0 0 .13-.96q-3.56-4.15-6.17-9.26Zm-254.47.5-6.19 8.79a.69.68-54.7 0 0 .15.95l32.43 23.1a.43.39-41.4 0 1-.08.69l-26.37 15.36a.58.52-30.2 0 0-.24.73l4.3 7.8q-.48.22-.96.13a1.19.78 75.8 0 1-.67-.62c-1.68-3.51-6.45-7.38-1.1-10.41q10.78-6.1 21.87-12.53a1.1 1.07-41.9 0 0 .13-1.82L5.34 178.94q-1.77-1.27-.71-2.81l5.21-7.55a1.12 1.07-73.3 0 1 .83-.47l1.08-.07Zm118 10.75q-.27 1.01-1.15 1.68a.44.4-41.4 0 0-.07.63c4.22 4.06 7.63 6.34 12 12.08q2 2.63 5.24 1.55a1.94 1.93 74.5 0 0 1.28-2.27c-.6-2.6-.86-5.98-2.58-7.89-2.58-2.86-7.91-3.42-12.01-3.93a.9.69-2.4 0 1-.71-.5q-.18-.53.25-.93 6.05.42 10.68 2.34c4.84 2.01 4.78 7.42 6.01 11.7a1.13 1.03 56 0 1-.13.9c-2.52 3.69-5.6 2.81-8.34-.14-1.46-1.57-14.65-13.96-14.57-14.97a.58.48 3.8 0 1 .6-.43l3.5.18Z"/><path fill="#1c1b17" d="m129.75 178.79 2.25.42q-.43.4-.25.93a.9.69-2.4 0 0 .71.5c4.1.51 9.43 1.07 12.01 3.93 1.72 1.91 1.98 5.29 2.58 7.89a1.94 1.93 74.5 0 1-1.28 2.27q-3.24 1.08-5.24-1.55c-4.37-5.74-7.78-8.02-12-12.08a.44.4-41.4 0 1 .07-.63q.88-.67 1.15-1.68Z"/><path fill="#020202" d="M103.36 239.57q.52-1.68 1.45-2.04 9.27-3.62 18.66-7.54 1.99-.83.15-1.9l-44.41-25.81q-1.46-.85-1.3.82.96 10.19 2.67 20.6c.17 1.06-.15 1.34-.95 1.93l-3.7-26.17q-.09-.61.41-.32l51.45 29.84q.59.35.01.59l-24.44 10Zm95.14-13.61q-.93-.01-1.38-.58a1.3.67-72.3 0 1-.15-.89l3.01-21.5q.21-1.52-1.19-.71l-44.61 25.88q-1.73 1 .04 1.77 8.93 3.86 18.84 7.8c.98.39 2.84-.07 1.98 2.02l-24.86-10.23q-.53-.22.03-.54l51.6-29.92q.51-.29.41.38l-3.72 26.52ZM67.71 227.5q-.49.25-.9.15a.84.57 88 0 1-.48-.66l-3.64-22.93a.59.59-6.3 0 0-.63-.5c-3.38.26-4.55 1.99-4.24 5.34q1.71 18.75 3.7 37.44.33 3.02-.11 4.33c-1.2 3.58-4.88 1.93-7.59 2.63-1.72.45-4.8 1.49-4.78-.8l11.14-1.34a.52.42-6.7 0 0 .47-.48l-4.58-45.19a.87.7-20.5 0 1 .43-.73l6.95-4.04a.39.33 73.1 0 1 .5.33l3.76 26.45Zm149.5 23.5c-2.18.5-.86-6.69-.65-7.78.45-2.33.11-5.16.71-7.53 1.25-4.99 1.21-11.15 1.65-16.36.26-3.09 1.48-8.53 1.12-13.07a1.25.47-89.7 0 0-.36-.96l-3.44-2.05a.84.71-72 0 0-1.09.68l-3.47 22.56a2.17 1.03 86.2 0 1-.41 1.04q-.87.99-2.07 1.39-.76.25-.78.25l-7.89-1.28a1.06.87-4.7 0 1-.75-.52q-.38-.8.72-.91l9.2 1.18a.51.47 8.3 0 0 .57-.39l3.72-26.25a.4.37-70.8 0 1 .57-.3l6.92 4.08a.8.78-71.3 0 1 .37.77L217.21 251Zm-168.46 1.21c-2.67.04-1.79-4.54-2.11-6.19q-.98-4.98-.4-10.03a1.77 1.71 35.7 0 0-.17-.94q-.69-1.37-.81-2.3-1.17-8.62-1.6-17.32a.99.99-17.4 0 0-1.52-.79q-11.3 7.1-24.01 13.03 12.68-8.61 26.12-15.63a.34.33-16.8 0 1 .49.26l4.01 39.91ZM259.54 227q-.55 1.05-1.53.47-11.13-6.52-22.35-12.94a1.39.92-27.8 0 0-.9-.09q-.76.19-1.51-.23-.15-1.02.1-1.98a.39.39 22.9 0 1 .58-.23l25.61 15Zm-26.75-9q.46-.06.86.22a1.02.76-72.9 0 1 .3.85q-1.6 16.25-3.39 32.49c-.09.81-.55 1.36-1.35.69l3.58-34.25ZM91.25 268.54c-1.25-.23-.1-1.27.37-1.48q16.79-7.73 33.69-15.24 2.76-1.23 5.38-2.71a1.1.77-21.3 0 0 .57-.86l-.28-3.25a1.59.4 80.3 0 1 .08-1.01c.68-1.32-1.43-.67-2-.44q-10.15 4.12-20.3 8.23-1.35.54-1.22-1.03l25.04-9.98a.46.32-14.5 0 1 .61.22v8.19a.92.5-18.7 0 1-.57.62l-41.37 18.74ZM175 240.46c1.95.49-2.55 9.16-3.04 10.19q-.94 2.01-3.02 1.15l-20.52-8.45q-2.08-.85-1.91 1.41l.29 3.74a.95.65-84.8 0 0 .42.75q18.97 8.87 38.04 17.54 1.53.69-.01 1l-39.67-17.94a.92.47 19.1 0 1-.58-.6V241a.37.29 13 0 1 .49-.23l24.54 9.9a.54.54-67.3 0 0 .7-.29l4.27-9.92Zm-41.85 23.98-36.26 16.21a1.79 1.76-28.5 0 1-2.22-.64q-3.43-5.34-4.28-10.72l5.22 9.97a.52.51 63.9 0 0 .67.24l36.23-16.47a.56.44-21.1 0 1 .72.22q.17.56-.08 1.19Z"/></svg>